<svg xmlns="http://www.w3.org/2000/svg" xmlns:xlink="http://www.w3.org/1999/xlink" version="1.1" x="0px" y="0px" viewBox="0 0 100 125" enable-background="new 0 0 100 100" xml:space="preserve"><g><path fill="#000000" d="M22.341,7v86h55.318V7H22.341z M74.405,10.254v16.735H25.595V10.254H74.405z M25.595,89.746V29.314h48.811   v60.432H25.595z"/><circle fill="#000000" cx="34.473" cy="39.262" r="2.37"/><circle fill="#000000" cx="34.473" cy="49.49" r="2.37"/><circle fill="#000000" cx="34.473" cy="59.252" r="2.37"/><circle fill="#000000" cx="34.473" cy="69.479" r="2.37"/><circle fill="#000000" cx="34.473" cy="79.242" r="2.37"/><rect x="40.936" y="48.838" fill="#000000" width="26.031" height="2.324"/><rect x="40.936" y="38.611" fill="#000000" width="26.031" height="2.325"/><rect x="40.936" y="58.601" fill="#000000" width="26.031" height="2.324"/><rect x="40.936" y="68.827" fill="#000000" width="26.031" height="2.324"/><rect x="40.936" y="78.589" fill="#000000" width="26.031" height="2.324"/><polygon fill="#000000" points="33.771,22.402 36.553,20.939 39.334,22.402 38.803,19.305 41.053,17.111 37.943,16.659    36.553,13.841 35.162,16.659 32.052,17.111 34.303,19.305  "/><polygon fill="#000000" points="46.752,22.402 49.533,20.939 52.314,22.402 51.783,19.305 54.033,17.111 50.924,16.659    49.533,13.841 48.142,16.659 45.032,17.111 47.283,19.305  "/><polygon fill="#000000" points="59.732,22.402 62.513,20.939 65.294,22.402 64.764,19.305 67.013,17.111 63.903,16.659    62.513,13.841 61.122,16.659 58.013,17.111 60.264,19.305  "/></g><text x="0" y="115" fill="#000000" font-size="5px" font-weight="bold" font-family="'Helvetica Neue', Helvetica, Arial-Unicode, Arial, Sans-serif">Created by Nick Kinling</text><text x="0" y="120" fill="#000000" font-size="5px" font-weight="bold" font-family="'Helvetica Neue', Helvetica, Arial-Unicode, Arial, Sans-serif">from the Noun Project</text></svg>