<svg xmlns="http://www.w3.org/2000/svg" xmlns:xlink="http://www.w3.org/1999/xlink" version="1.1" x="0px" y="0px" viewBox="0 0 100 125" enable-background="new 0 0 100 100" xml:space="preserve"><path d="M51.5,8.5c-23.16,0-42,18.842-42,42s18.84,42,42,42c23.158,0,42-18.842,42-42S74.658,8.5,51.5,8.5z M51.5,88.5  c-20.954,0-38-17.047-38-38c0-20.954,17.046-38,38-38c20.953,0,38,17.046,38,38C89.5,71.453,72.453,88.5,51.5,88.5z M66.086,33.088  L51.5,47.672L36.914,33.088l-2.828,2.828L48.672,50.5L34.086,65.086l2.828,2.828L51.5,53.328l14.586,14.586l2.828-2.828L54.328,50.5  l14.586-14.584L66.086,33.088z"/><text x="0" y="115" fill="#000000" font-size="5px" font-weight="bold" font-family="'Helvetica Neue', Helvetica, Arial-Unicode, Arial, Sans-serif">Created by Sergey Demushkin</text><text x="0" y="120" fill="#000000" font-size="5px" font-weight="bold" font-family="'Helvetica Neue', Helvetica, Arial-Unicode, Arial, Sans-serif">from the Noun Project</text></svg>