<svg xmlns="http://www.w3.org/2000/svg" xmlns:xlink="http://www.w3.org/1999/xlink" version="1.1" x="0px" y="0px" viewBox="0 0 100 125" enable-background="new 0 0 100 100" xml:space="preserve"><path d="M97.373,34.717l-13.799-9.011L79.271,9.8l-16.461,0.82L49.977,0.282L37.146,10.62L20.685,9.8l-4.303,15.906L2.581,34.717  L8.45,50.116L2.581,65.516l13.801,9.012l4.303,15.906l16.461-0.82L49.977,99.95l12.833-10.339l16.461,0.82l4.304-15.904  l13.799-9.014l-5.866-15.397L97.373,34.717z M41.793,72.693L22.811,51.812l9.689-8.479l10.477,11.05L69.5,29.167L78,39  L41.793,72.693z"/><text x="0" y="115" fill="#000000" font-size="5px" font-weight="bold" font-family="'Helvetica Neue', Helvetica, Arial-Unicode, Arial, Sans-serif">Created by Brennan Novak</text><text x="0" y="120" fill="#000000" font-size="5px" font-weight="bold" font-family="'Helvetica Neue', Helvetica, Arial-Unicode, Arial, Sans-serif">from the Noun Project</text></svg>