<svg xmlns="http://www.w3.org/2000/svg" xmlns:xlink="http://www.w3.org/1999/xlink" version="1.1" x="0px" y="0px" viewBox="0 0 100 125" enable-background="new 0 0 100 100" xml:space="preserve"><path d="M83.078,95.67c1.978-2.529,4.756-4.773,5.334-8.101c0.389-2.229,0.173-4.491,0.409-6.73c0.272-2.597,1.244-5.07,1.499-7.673  c0.126-1.285,0.169-2.601-0.268-3.833c-0.471-1.331-1.511-2.165-1.819-3.578c-0.228-1.039-0.174-2.232-0.21-3.292  c-0.024-0.689-0.424-5.146,0.833-5.146c0,0,2.628,3.678,4.204,4.728l1.051-0.656c0,0-4.728-6.962-4.728-8.538  c0-1.573-62.806-0.007-63.046,0c1.08-0.026,3.177,12.805,3.336,13.94c0.395,2.812,0.778,5.69,0.482,8.53  c-0.22,2.113-1.586,3.788-2.18,5.773c-0.496,1.656-0.325,3.406-0.325,5.117c0,0.906-1.804,2.91-2.202,3.781  c-0.536,1.176-1.61,3.409-0.962,4.727c1.283,2.605,7.474,1.513,9.755,1.172c0.176-0.027,0.454-5.087,0.502-5.607l3.678,2.955  l5.779-6.402c0,0-13.134-10.557-1.576-24.217c0,0,10.507,0.325,17.338-2.477c1.605,2.674,3.972,5.04,4.848,8.099  c0.663,2.312,0.164,5.11-0.12,7.47c-1.828,2.716-3.633,5.45-5.465,8.164c-1.438,2.134-7.209,8.429-1.461,9.411  c3.279,0.561,4.74,0.182,6.332-2.616c1.204-2.118,2.088-4.163,3.896-5.842c1.578-1.462,2.512-2.534,2.215-4.92  c-0.513-4.11,2.203-5.485,5.121-7.882c0,0,3.35-5.253,0.723-7.881c0,0-0.295-2.102,0.755-1.575c2.01,3.781,3.948,6.493,3.904,10.9  c-0.027,2.56,0.382,5.179-0.117,7.714c-0.286,1.457-0.869,2.854-1.061,4.328c-0.243,1.884-1.216,3.477-2.363,4.945  c-0.636,0.812-2.123,1.655-2.325,2.729c-0.263,1.385,0.988,2.023,1.831,3.008"/><path d="M96.104,59.982c2.338,1.764,1.369,10.67,0.414,11.938c-0.957,1.267-1.802-5.23-4.14-6.994  c-2.34-1.766-2.624-3.866-1.669-5.134C91.666,58.524,93.765,58.219,96.104,59.982z"/><path d="M79.255,25.198c-3.097-1.874-11.49,0.522-11.49,0.522c-18.137,10.883-29.019,2.073-29.019,2.073  c-7.691-7.121-13.185-9.697-16.578-10.577c-0.778-0.335-1.597-0.591-2.448-0.759c0.163-6.045,0.237-13.02-1.185-13.02  c-1.463,0-4.103,7.383-5.422,13.541c-0.052,0.019-0.105,0.038-0.157,0.057C10.96,15.303,7.135,7.563,7.135,5.251  c0-0.044,0.005-0.088,0.005-0.131c-0.014,0.002-0.028,0-0.042,0.002c-2.542,0.417-3.891,5.104-3.011,10.47  c0.455,2.779,1.42,5.188,2.596,6.814c-1.026,1.793-1.621,3.864-1.621,6.078c0,0.57,0.053,1.127,0.128,1.677  c-0.054,0.081-0.112,0.157-0.166,0.239c0.02,0.251,0.038,0.538,0.038,0.795C5.063,36.095-1.712,42,4.577,46h6.846  c1.805-1.396,3.623-2.59,5.243-4.249C22.896,41.889,25.791,50,25.791,50h36.044h1.786h26.313c0.848-3,1.325-5.04,1.325-7.562  C91.259,34.118,86.122,26.993,79.255,25.198z M37.745,45.775l-3.528-1.855l-3.528,1.855l0.673-3.93l-2.854-2.782l3.944-0.573  l1.765-3.575l1.764,3.575l3.944,0.573l-2.854,2.782L37.745,45.775z M52.945,45.775l-3.528-1.855l-3.528,1.855l0.674-3.93  l-2.854-2.782l3.945-0.573l1.764-3.575l1.764,3.575l3.944,0.573l-2.854,2.782L52.945,45.775z M68.146,45.775l-3.527-1.855  l-3.529,1.855l0.675-3.93l-2.855-2.782l3.945-0.573l1.765-3.575l1.764,3.575l3.944,0.573l-2.854,2.782L68.146,45.775z   M83.969,45.775L80.44,43.92l-3.529,1.855l0.675-3.93l-2.854-2.782l3.945-0.573l1.764-3.575l1.764,3.575l3.944,0.573l-2.854,2.782  L83.969,45.775z"/><text x="0" y="115" fill="#000000" font-size="5px" font-weight="bold" font-family="'Helvetica Neue', Helvetica, Arial-Unicode, Arial, Sans-serif">Created by Yi Chen</text><text x="0" y="120" fill="#000000" font-size="5px" font-weight="bold" font-family="'Helvetica Neue', Helvetica, Arial-Unicode, Arial, Sans-serif">from the Noun Project</text></svg>