<svg xmlns:dc="http://purl.org/dc/elements/1.1/" xmlns:cc="http://creativecommons.org/ns#" xmlns:rdf="http://www.w3.org/1999/02/22-rdf-syntax-ns#" xmlns:svg="http://www.w3.org/2000/svg" xmlns="http://www.w3.org/2000/svg" xmlns:sodipodi="http://sodipodi.sourceforge.net/DTD/sodipodi-0.dtd" xmlns:inkscape="http://www.inkscape.org/namespaces/inkscape" viewBox="0 0 1185.625 1053.1219" version="1.1" x="0px" y="0px"><g transform="translate(-18278.273,-14016.832)"><path style="" d="m 19163.274,14835.468 c -24.063,-13.123 -50.782,-27.698 -59.375,-32.389 -8.594,-4.692 -23.219,-12.658 -32.501,-17.704 l -16.875,-9.174 -0.329,-42.417 c -0.189,-24.342 0.156,-42.903 0.809,-43.556 0.686,-0.686 31.279,15.313 76.786,40.155 l 75.647,41.294 16.044,-8.803 c 8.824,-4.841 25.606,-14.016 37.294,-20.389 11.687,-6.373 38.329,-20.933 59.204,-32.356 20.875,-11.423 38.453,-20.46 39.063,-20.084 0.609,0.377 1.108,19.708 1.108,42.958 0,32.298 -0.369,42.578 -1.563,43.563 -0.859,0.71 -13.375,7.741 -27.812,15.624 -14.438,7.884 -41.438,22.639 -60,32.791 -57.189,31.274 -62.862,34.352 -63.313,34.349 -0.241,0 -20.125,-10.739 -44.187,-23.862 z m 237.5,-6.536 c -13.063,-3.561 -24.453,-6.929 -25.313,-7.486 -1.222,-0.79 -1.562,-17.619 -1.562,-77.187 0,-77.959 -0.07,-79.153 -4.438,-75.065 -2.604,2.439 -160.525,86.389 -162.508,86.389 -1.17,0 -14.008,-6.395 -28.528,-14.211 -14.521,-7.816 -46.089,-24.758 -70.151,-37.649 -24.063,-12.891 -49.657,-26.66 -56.876,-30.598 -7.218,-3.938 -34.359,-18.553 -60.312,-32.477 -25.953,-13.924 -47.188,-25.754 -47.188,-26.288 0,-1.568 2.251,-2.947 19.375,-11.875 8.938,-4.66 17.938,-9.465 20,-10.677 2.063,-1.213 38.625,-20.905 81.25,-43.762 117.682,-63.103 126.896,-68.034 135.229,-72.364 l 7.729,-4.016 14.771,8.063 c 8.124,4.434 61.74,33.225 119.147,63.979 57.406,30.754 108.453,58.14 113.437,60.858 8.714,4.751 9.063,5.119 9.062,9.542 l 0,4.599 -29.061,15.552 c -15.984,8.554 -31.172,16.858 -33.75,18.454 l -4.687,2.901 0,56.16 c 0,34.08 0.466,56.449 1.186,56.894 0.652,0.403 10.607,3.247 22.121,6.32 11.514,3.072 21.444,6.095 22.066,6.718 0.885,0.885 -7.078,34.132 -12.381,51.689 -0.363,1.203 -1.607,2.148 -2.764,2.1 -1.157,-0.05 -12.791,-3.002 -25.853,-6.563 z m -180.729,-203.645 c 7.988,-2.02 16.354,-10.297 16.354,-16.18 0,-22.4 -47.974,-26.898 -56.98,-5.342 -4.141,9.911 5.413,20.407 20.797,22.847 7.259,1.151 11.036,0.899 19.829,-1.325 z m -510.689,41.325 c -8.845,-4.829 -23.958,-13.148 -33.583,-18.486 -9.625,-5.338 -23.125,-12.675 -30,-16.303 -6.875,-3.629 -13.062,-6.997 -13.75,-7.484 -0.687,-0.487 -6.312,-3.592 -12.5,-6.9 -6.187,-3.307 -23.062,-12.487 -37.5,-20.398 -14.437,-7.911 -32.156,-17.594 -39.375,-21.519 -7.219,-3.924 -18.469,-10.076 -25,-13.672 -6.531,-3.596 -20.734,-11.33 -31.562,-17.186 l -19.688,-10.647 0,-72.893 c 0,-49.287 0.423,-73.155 1.305,-73.7 0.718,-0.444 1.983,-0.281 2.812,0.362 0.83,0.643 5.727,3.432 10.883,6.198 5.156,2.766 24,13.028 41.875,22.805 31.707,17.341 38.541,21.073 82.5,45.052 11.688,6.375 27.156,14.814 34.375,18.752 7.219,3.939 20.157,10.982 28.75,15.652 8.594,4.671 22.375,12.255 30.625,16.856 8.25,4.6 17.634,9.792 20.854,11.538 l 5.854,3.174 18.521,-10.281 c 10.187,-5.655 29.771,-16.39 43.521,-23.855 13.75,-7.465 30.344,-16.473 36.875,-20.019 6.532,-3.546 15.25,-8.29 19.375,-10.543 4.125,-2.253 13.969,-7.604 21.875,-11.892 7.907,-4.288 19.438,-10.586 25.625,-13.995 12.881,-7.098 47.9,-26.264 74.197,-40.607 9.871,-5.384 18.449,-9.789 19.063,-9.789 0.641,0 1.115,31.345 1.115,73.79 0,69.132 -0.138,73.84 -2.187,74.602 -1.203,0.447 -9.781,5.007 -19.063,10.135 -35.736,19.743 -54.966,30.223 -55.454,30.223 -0.279,0 -12.244,6.524 -26.589,14.497 -14.345,7.973 -34.238,18.873 -44.207,24.223 -25.864,13.879 -30.563,16.443 -55,30.009 -29.948,16.626 -52.952,28.968 -56.598,30.367 -1.031,0.396 -9.031,-3.2 -17.944,-8.066 z m -360.146,-32.564 c -1.437,-1.771 -24.029,-85.601 -24.053,-89.251 0,-0.775 5.757,-2.953 12.804,-4.839 13.74,-3.678 31.121,-8.378 52.187,-14.111 l 13.125,-3.573 0.32,-97.699 0.32,-97.699 -7.82,-3.932 c -4.301,-2.162 -24.976,-13.211 -45.945,-24.552 -47.538,-25.712 -56.389,-30.489 -65,-35.087 -3.781,-2.019 -6.875,-4.433 -6.875,-5.364 0,-1.715 12.778,-8.978 56.875,-32.325 13.406,-7.098 37.313,-19.937 53.125,-28.53 15.813,-8.594 33.813,-18.274 40,-21.511 15.23,-7.969 23.791,-12.55 77.5,-41.471 25.438,-13.698 48.781,-26.225 51.875,-27.838 3.094,-1.613 22.781,-12.183 43.75,-23.488 20.969,-11.305 42.907,-23.096 48.75,-26.202 27.441,-14.583 51.662,-27.537 62.375,-33.359 6.463,-3.511 12.879,-6.385 14.258,-6.385 1.378,0 19.435,9.11 40.124,20.243 43.352,23.329 58.455,31.423 77.618,41.596 11.675,6.198 66.836,35.867 101.25,54.458 5.5,2.971 11.688,6.238 13.75,7.26 2.063,1.023 20.625,10.975 41.25,22.117 20.625,11.142 42.563,22.943 48.75,26.225 6.188,3.281 15.469,8.206 20.625,10.943 5.157,2.737 23.157,12.42 40.001,21.517 16.843,9.098 35.687,19.23 41.875,22.517 18.273,9.707 24.375,13.302 24.375,14.363 0,1.074 -23.089,13.8 -68.75,37.893 -6.532,3.446 -20.876,11.155 -31.876,17.131 -11,5.975 -32.937,17.783 -48.75,26.238 -15.812,8.455 -46.75,25.062 -68.75,36.904 -22,11.842 -45.625,24.505 -52.5,28.138 -6.875,3.634 -30.781,16.426 -53.125,28.427 -58.699,31.528 -58.267,31.297 -71.25,38.143 -6.531,3.444 -21.036,11.24 -32.232,17.324 -11.197,6.085 -21.176,11.063 -22.176,11.063 -2.212,0 -11.478,-4.821 -72.467,-37.708 -26.125,-14.087 -53.687,-28.886 -61.25,-32.886 -20.948,-11.082 -78.262,-41.929 -82.5,-44.402 -2.062,-1.204 -11.625,-6.286 -21.25,-11.293 -9.625,-5.008 -22.281,-11.747 -28.125,-14.977 -5.844,-3.231 -13.023,-7.095 -15.954,-8.587 l -5.329,-2.714 0.05,132.083 c 0.03,72.646 -0.151,132.285 -0.397,132.531 -0.246,0.246 -4.621,1.531 -9.721,2.856 -5.101,1.324 -16.868,4.456 -26.149,6.961 -9.281,2.504 -24.187,6.501 -33.125,8.882 -8.937,2.381 -17.155,4.606 -18.261,4.945 -1.106,0.339 -2.592,-0.1 -3.302,-0.975 z m 397.151,-355.549 c 32.544,-9.025 40.655,-36.384 15.851,-53.467 -25.001,-17.219 -72.051,-10.614 -83.21,11.682 -3.669,7.33 -4.098,11.139 -2.048,18.19 5.899,20.292 39.781,31.811 69.407,23.595 z" fill="#000000"/></g><text x="0" y="857.49752" fill="#000000" font-size="5px" font-weight="bold" font-family="'Helvetica Neue', Helvetica, Arial-Unicode, Arial, Sans-serif">Created by Hector</text><text x="0" y="862.49752" fill="#000000" font-size="5px" font-weight="bold" font-family="'Helvetica Neue', Helvetica, Arial-Unicode, Arial, Sans-serif">from the Noun Project</text></svg>