<svg xmlns="http://www.w3.org/2000/svg" xmlns:xlink="http://www.w3.org/1999/xlink" version="1.1" x="0px" y="0px" viewBox="0 0 72 90" enable-background="new 0 0 72 72" xml:space="preserve"><g><path fill="#000000" d="M60.3,59H11.9c-2.3,0-4.1-1.8-4.1-4.1v-4c0-2.3,1.8-4.1,4.1-4.1h48.4c2.3,0,4.1,1.8,4.1,4.1v4   C64.5,57.2,62.6,59,60.3,59z"/><path fill="#000000" d="M70.7,35c-1.5-3.1-3-6.2-4.5-9.3c-0.5-1.1-1.4-1.7-2.6-1.9c-4.2-0.8-8.5-1.6-12.7-2.4c-1-0.2-2-0.6-2.9-1.1   c-3.7-2.3-7.4-4.6-11.2-7c-0.5-0.3-1.2-0.3-1.7,0c-4.1,2.6-8,5.4-12.3,7.7c-2,1.1-4.5,1.2-6.8,1.7c-2.7,0.6-5.3,1.1-8,1.6   c-1.2,0.2-2,0.9-2.5,2c-1.5,3.3-3,6.5-4.5,9.7C0.9,36.4,1,36.7,1.3,37c2,1.7,3.9,3.4,5.9,5c0.6,0.5,1.6,0.6,2.5,0.6   c17.6,0,35.2,0,52.8,0c1.5,0,2.7-0.4,3.8-1.6c1.1-1.1,2.3-2.2,3.6-3.1C71,37,71.3,36.2,70.7,35z M43.8,26.5l-4.2,3.1   c-0.1,0.1-0.2,0.3-0.1,0.4l1.6,5c0.1,0.3-0.3,0.6-0.6,0.4l-4.2-3.1c-0.1-0.1-0.3-0.1-0.4,0l-4.2,3.1c-0.3,0.2-0.7-0.1-0.6-0.4   l1.6-5c0-0.2,0-0.3-0.1-0.4l-4.2-3.1c-0.3-0.2-0.1-0.7,0.2-0.7h5.2c0.2,0,0.3-0.1,0.4-0.3l1.6-5c0.1-0.3,0.6-0.3,0.7,0l1.6,5   c0,0.2,0.2,0.3,0.4,0.3h5.2C43.9,25.8,44.1,26.3,43.8,26.5z"/></g><text x="0" y="87" fill="#000000" font-size="5px" font-weight="bold" font-family="'Helvetica Neue', Helvetica, Arial-Unicode, Arial, Sans-serif">Created by Creative Stall</text><text x="0" y="92" fill="#000000" font-size="5px" font-weight="bold" font-family="'Helvetica Neue', Helvetica, Arial-Unicode, Arial, Sans-serif">from the Noun Project</text></svg>